<?xml version="1.0" encoding="UTF-8"?>
<svg version="1.1" viewBox="0 0 928 1151" width="928" height="1151" xmlns="http://www.w3.org/2000/svg">
<path transform="translate(469,33)" d="m0 0h23l29 3 22 5 27 9 20 9 23 12 19 12 18 13 13 11 11 9 13 12 16 16 7 8 12 14 11 14 13 18 14 21 12 20 13 23 15 28 13 26 15 33 11 25 13 33 13 37 10 33 10 40 6 31 5 34 2 20 1 17v54l-3 36-5 32-8 36-9 31-11 31-14 32-11 22-12 21-12 19-11 16-12 16-11 13-12 14-19 19-8 7-15 13-16 12-18 13-28 17-27 14-23 10-25 9-29 8-26 5-22 3-13 1h-46l-29-3-28-5-27-7-30-10-26-11-22-11-27-16-20-14-13-10-13-11-12-11-23-23-9-11-12-15-14-20-12-19-15-26-12-24-13-30-10-27-9-30-6-24-6-31-4-29-2-24v-62l3-35 5-35 5-28 9-36 9-29 12-34 18-45 16-36 22-44 26-46 14-22 16-24 13-18 13-17 13-16 12-14 15-16 13-13 11-9 13-11 17-12 16-10 20-11 27-11 23-7 20-4z" fill="#1F7A88"/>
<path transform="translate(461,54)" d="m0 0h40l21 3 21 5 20 7 20 9 22 12 24 16 13 10 11 9 10 9 8 7 19 19 7 8 11 13 10 13 13 18 10 15 15 25 14 25 17 32 17 35 15 34 12 30 13 36 10 32 10 38-5 14-8 16-9 15-10 14-10 13-14 17-5 5-60 18-44 11-38 8-38 6-36 4-28 2-25 1h-33l-28-1-7-1v-73l-2-2h-5l-3 6-12 53-3 14-2 1-60-5-81-9-36-5-93-13-9-2-14-10-14-12-10-10-7-8-12-15-9-14-5-9 1-10 6-27 8-28 11-33 14-37 12-29 13-29 21-42 13-23 10-18 24-38 8-11 10-14 16-21 11-14 12-14 12-13 17-17 11-9 12-10 20-14 21-12 19-9 20-7 18-5 23-4z" fill="#F39B6C"/>
<path transform="translate(469,33)" d="m0 0h23l29 3 22 5 27 9 20 9 23 12 19 12 18 13 13 11 11 9 13 12 16 16 7 8 12 14 11 14 13 18 14 21 12 20 13 23 15 28 13 26 15 33 11 25 13 33 13 37 10 33 10 40 6 31 5 34 2 20 1 17v54l-3 36-5 32-8 36-9 31-11 31-14 32-11 22-12 21-12 19-11 16-12 16-11 13-12 14-19 19-8 7-15 13-16 12-18 13-28 17-27 14-23 10-25 9-29 8-26 5-22 3-13 1h-46l-29-3-28-5-27-7-30-10-26-11-22-11-27-16-20-14-13-10-13-11-12-11-23-23-9-11-12-15-14-20-12-19-15-26-12-24-13-30-10-27-9-30-6-24-6-31-4-29-2-24v-62l3-35 5-35 5-28 9-36 9-29 12-34 18-45 16-36 22-44 26-46 14-22 16-24 13-18 13-17 13-16 12-14 15-16 13-13 11-9 13-11 17-12 16-10 20-11 27-11 23-7 20-4zm-8 21-27 4-20 5-20 7-18 8-20 11-15 10-16 12-13 11-12 11-17 17-7 8-11 13-29 38-13 19-10 15-13 21-15 26-15 28-19 38-16 37-14 36-12 34-7 21-9 34-4 21 1 6 10 17 11 14 10 11 7 8 8 8 14 11 10 7 16 3 101 14 46 6 67 7 50 4 2-7 9-39 6-25 2-3h5l2 2v73l7 1 28 1h33l40-2 41-4 40-6 31-6 38-9 36-10 35-11 9-3 7-7 8-10 14-18 14-21 8-14 8-19 1-4-8-31-11-36-12-34-15-37-12-27-16-34-17-33-13-23-12-21-15-23-12-17-11-14-9-11-10-11-7-8-19-19-8-7-17-14-18-13-19-12-24-13-24-10-23-7-22-4-9-1zm333 577-47 14-44 11-45 9-40 6-40 4-38 2h-41l-48-2-53-4-59-6-72-9-100-14-5 1-11 29-13 34-6 24-3 23v66l1 31 3 8 9 12 12 13 11 10 16 12 19 12 27 15 24 12 41 18 38 15 42 15 34 11 39 11 29 7 32 5 31 2h25l28-2 30-5 23-6 20-7 20-9 19-10 16-10 14-10 13-10 10-9 8-7 17-17 7-8 12-15 14-26 12-23 12-26 7-21 3-16v-32l-3-23-5-19-7-20-16-33-14-26-4-7z" fill="#000101"/>
<path transform="translate(137,885)" d="m0 0 7 6 7 7 17 13 21 14 21 12 29 15 37 17 45 18 44 16 44 14 40 11 27 6 26 4 23 2h48l29-3 26-5 22-6 19-7 20-9 19-10 19-12 14-10 14-11 10-9 8-7 7-7v3l-14 17-11 12-7 8-12 12-8 7-14 12-20 15-21 14-20 12-27 14-26 11-31 10-26 6-24 4-22 2h-42l-29-3-27-5-23-6-30-10-23-10-17-8-21-12-19-12-19-14-13-11-8-7-12-11-11-11-7-8-11-13-13-18-11-16-15-25-9-16z" fill="#F39B6C"/>
<path transform="translate(301,451)" d="m0 0 12 1 12 5 13 10 8 10 9 16 5 13 5 21 1 6v34l-4 21-7 19-9 15-11 12-10 7-5 2-14-1-29-4-7-8-8-8-9-15-6-15-4-15-2-12v-34l3-17 5-16 8-16 6-9 8-9 10-7 9-4z" fill="#FCFCFC"/>
<path transform="translate(616,455)" d="m0 0h17l11 4 12 9 8 9 8 13 7 16 5 18 2 13v32l-3 17-5 16-8 17-9 12-10 9-9 5-8 3h-16l-10-3-9-5-10-9-8-9-9-16-7-21-3-16v-34l3-18 6-18 8-16 8-10 8-8 9-6z" fill="#FCFCFC"/>
<path transform="translate(83,575)" d="m0 0h2l8 11 18 20 8 7 12 11 13 10-3 11-12 31-9 24-6 23-3 19-1 13v66l-2-1-10-31-9-36-6-34-3-25-1-12-1-38 1-27 3-33z" fill="#F39B6C"/>
<path transform="translate(870,549)" d="m0 0h1l5 33 3 33v59l-3 34-5 30-4 19h-1l-4-28-5-19-9-24-14-29-14-26-3-6 1-4 11-14 14-18 15-20z" fill="#F39B6C"/>
<path transform="translate(533,327)" d="m0 0 12 1 30 5 24 6 20 7 14 7 7 6 9 11 14 14 11 9 13 11 12 12-1 2-11-5-40-15-33-13-25-8-19-4-30-3-17-2 1-9 8-30z"/>
<path transform="translate(376,321)" d="m0 0h6l7 24 4 16-22 3-26 3-21 5-23 8-39 16-38 15-6 2 6-8 13-12 11-9 8-8 6-5 9-11 10-11 12-7 21-8 27-7z"/>
<path transform="translate(311,466)" d="m0 0h10l10 4 8 7 5 8 2 11-2 12-5 8-8 7-10 4h-11l-11-4-6-5-6-10-2-9v-7l3-9 4-6 9-8z" fill="#000102"/>
<path transform="translate(630,472)" d="m0 0h13l10 4 8 7 5 10 1 4v10l-4 11-7 8-8 5-3 1h-16l-9-4-7-6-6-12v-15l4-10 9-9z" fill="#000101"/>
</svg>
